<svg width="121" height="53" viewBox="0 0 121 53" fill="none" xmlns="http://www.w3.org/2000/svg">
<path d="M18.8672 31.4844C18.8672 31.0625 18.8516 30.6562 18.8203 30.2656C18.8047 29.8594 18.7812 29.4453 18.75 29.0234C18.7188 28.6016 18.6797 28.1562 18.6328 27.6875C18.5859 27.2031 18.5391 26.6641 18.4922 26.0703C17.8516 26.3203 17.1719 26.5156 16.4531 26.6562C15.7344 26.7812 14.9375 26.8438 14.0625 26.8438C13.0938 26.8438 12.1641 26.6953 11.2734 26.3984C10.3828 26.0859 9.59375 25.6328 8.90625 25.0391C8.21875 24.4453 7.66406 23.7031 7.24219 22.8125C6.83594 21.9062 6.63281 20.8516 6.63281 19.6484C6.63281 18.8828 6.71875 18.1484 6.89062 17.4453C7.07812 16.7266 7.39844 15.9766 7.85156 15.1953C8.30469 14.4141 8.90625 13.5703 9.65625 12.6641C10.4219 11.7422 11.3828 10.6953 12.5391 9.52344C13.6953 8.35156 15.0625 7.02344 16.6406 5.53906C18.2344 4.05469 20.0938 2.35156 22.2188 0.429688L23.1797 1.15625C22.8359 1.625 22.5312 2.14062 22.2656 2.70312C22 3.26562 21.7734 3.91406 21.5859 4.64844C21.3984 5.38281 21.2578 6.23438 21.1641 7.20312C21.0703 8.15625 21.0234 9.26562 21.0234 10.5312C21.0234 12.4219 21.0938 14.3438 21.2344 16.2969C21.375 18.2344 21.5312 20.1328 21.7031 21.9922C22.0156 21.5547 22.2891 21.0938 22.5234 20.6094C22.7734 20.125 22.9922 19.6406 23.1797 19.1562L24.1406 19.6484C23.8281 20.3984 23.4844 21.1016 23.1094 21.7578C22.75 22.4141 22.3281 23.0234 21.8438 23.5859C21.9219 24.3828 22 25.1172 22.0781 25.7891C22.1562 26.4453 22.2188 27.0625 22.2656 27.6406C22.3281 28.2188 22.375 28.7734 22.4062 29.3047C22.4531 29.8359 22.4766 30.375 22.4766 30.9219C22.4766 32.6094 22.3203 34.1094 22.0078 35.4219C21.7109 36.7344 21.125 37.875 20.25 38.8438C19.3906 39.8281 18.1641 40.6328 16.5703 41.2578C14.9922 41.8828 13.1172 42.1953 10.9453 42.1953C9.60156 42.1953 8.32031 42.0078 7.10156 41.6328C5.88281 41.2578 4.8125 40.7344 3.89062 40.0625C2.96875 39.3906 2.23438 38.5859 1.6875 37.6484C1.14062 36.7109 0.867188 35.6719 0.867188 34.5312C0.867188 33.6875 1.00781 32.9297 1.28906 32.2578C1.55469 31.5859 1.90625 30.9922 2.34375 30.4766C2.78125 29.9453 3.25781 29.4922 3.77344 29.1172C4.30469 28.7422 4.82031 28.4297 5.32031 28.1797C5.82031 27.9297 6.27344 27.7344 6.67969 27.5938C7.08594 27.4531 7.39062 27.3594 7.59375 27.3125L8.0625 28.2734C7.70312 28.4609 7.29688 28.7188 6.84375 29.0469C6.40625 29.3594 5.99219 29.7656 5.60156 30.2656C5.21094 30.75 4.88281 31.3438 4.61719 32.0469C4.35156 32.75 4.21875 33.5781 4.21875 34.5312C4.21875 35.5469 4.39062 36.4609 4.73438 37.2734C5.07812 38.0703 5.55469 38.75 6.16406 39.3125C6.78906 39.8594 7.52344 40.2812 8.36719 40.5781C9.22656 40.8594 10.1641 41 11.1797 41C12.3203 41 13.3594 40.8438 14.2969 40.5312C15.25 40.2188 16.0625 39.6953 16.7344 38.9609C17.4062 38.2266 17.9297 37.25 18.3047 36.0312C18.6797 34.8125 18.8672 33.2969 18.8672 31.4844ZM18.8672 5.23438C17.6484 6.40625 16.5703 7.46094 15.6328 8.39844C14.6953 9.33594 13.875 10.1953 13.1719 10.9766C12.4844 11.7578 11.9062 12.4844 11.4375 13.1562C10.9688 13.8125 10.5938 14.4609 10.3125 15.1016C10.0312 15.7422 9.82812 16.3906 9.70312 17.0469C9.57812 17.7031 9.51562 18.4062 9.51562 19.1562C9.51562 21.4375 10.0234 23.0938 11.0391 24.125C12.0547 25.1406 13.4609 25.6484 15.2578 25.6484C15.8516 25.6484 16.4062 25.5938 16.9219 25.4844C17.4531 25.3594 17.9453 25.1875 18.3984 24.9688C18.2891 23.8906 18.1719 22.8125 18.0469 21.7344C17.9375 20.6406 17.8359 19.5938 17.7422 18.5938C17.6484 17.5781 17.5703 16.625 17.5078 15.7344C17.4609 14.8438 17.4375 14.0625 17.4375 13.3906C17.4375 12.7188 17.4688 11.9844 17.5312 11.1875C17.6094 10.3906 17.7109 9.61719 17.8359 8.86719C17.9609 8.10156 18.1094 7.39844 18.2812 6.75781C18.4531 6.10156 18.6484 5.59375 18.8672 5.23438ZM35.5547 23.4219C35.1172 23.4219 34.625 23.6172 34.0781 24.0078C33.5469 24.3984 33.0078 24.9062 32.4609 25.5312C31.9141 26.1406 31.3828 26.8281 30.8672 27.5938C30.3672 28.3594 29.9297 29.1172 29.5547 29.8672C29.5078 31.2422 29.4609 32.7422 29.4141 34.3672C29.3828 35.9922 29.3672 37.7266 29.3672 39.5703C29.3672 39.8047 29.2578 40.0156 29.0391 40.2031C28.8359 40.375 28.5938 40.5234 28.3125 40.6484C28.0312 40.7578 27.7422 40.8438 27.4453 40.9062C27.1484 40.9688 26.9062 41 26.7188 41C26.4844 41 26.2656 40.9297 26.0625 40.7891C25.8594 40.6484 25.7578 40.3359 25.7578 39.8516C25.7578 39.6172 25.7812 39.3281 25.8281 38.9844C25.875 38.625 25.9375 38.2422 26.0156 37.8359C26.0781 37.4297 26.1562 37.0156 26.25 36.5938C26.3281 36.1562 26.4062 35.75 26.4844 35.375V23.9141C26.4844 23.6016 26.4922 23.3594 26.5078 23.1875C26.5078 23 26.5312 22.8594 26.5781 22.7656C26.6719 22.5469 26.8359 22.375 27.0703 22.25C27.3047 22.125 27.5547 22.0312 27.8203 21.9688C28.0859 21.8906 28.3438 21.8438 28.5938 21.8281C28.8438 21.8125 29.0391 21.8047 29.1797 21.8047C29.4453 21.8047 29.625 21.875 29.7188 22.0156C29.8281 22.1562 29.8828 22.4062 29.8828 22.7656C29.8828 22.7188 29.8438 23.1016 29.7656 23.9141C29.7031 24.7266 29.6484 25.8906 29.6016 27.4062C30.0703 26.6719 30.5781 25.9688 31.125 25.2969C31.6719 24.625 32.2422 24.0312 32.8359 23.5156C33.4297 23 34.0391 22.5859 34.6641 22.2734C35.3047 21.9609 35.9531 21.8047 36.6094 21.8047C37.7812 21.8047 38.6406 22.1797 39.1875 22.9297C39.7344 23.6641 40.0078 24.6641 40.0078 25.9297C40.0078 26.7266 39.9531 27.6172 39.8438 28.6016C39.75 29.5703 39.6328 30.5625 39.4922 31.5781C39.3672 32.5781 39.25 33.5625 39.1406 34.5312C39.0469 35.4844 39 36.3594 39 37.1562C39 38.1875 39.3203 38.7031 39.9609 38.7031C40.1641 38.7031 40.3984 38.6016 40.6641 38.3984C40.9453 38.1797 41.2891 37.7812 41.6953 37.2031C42.1172 36.625 42.6172 35.8359 43.1953 34.8359C43.7734 33.8203 44.4609 32.5156 45.2578 30.9219L45.4922 30.4297L46.4531 31.1562L46.2188 31.6484C45.2812 33.5234 44.4453 35.0625 43.7109 36.2656C42.9922 37.4688 42.3359 38.4219 41.7422 39.125C41.1484 39.8281 40.5938 40.3203 40.0781 40.6016C39.5625 40.8672 39.0469 41 38.5312 41C38.2031 41 37.875 40.9531 37.5469 40.8594C37.2188 40.7656 36.9297 40.6016 36.6797 40.3672C36.4297 40.1328 36.2266 39.8203 36.0703 39.4297C35.9141 39.0234 35.8359 38.5078 35.8359 37.8828C35.8359 36.9453 35.8984 35.8906 36.0234 34.7188C36.1484 33.5469 36.2891 32.375 36.4453 31.2031C36.6016 30.0312 36.7422 28.9297 36.8672 27.8984C36.9922 26.8516 37.0547 26 37.0547 25.3438C37.0547 24.7656 36.9297 24.3047 36.6797 23.9609C36.4297 23.6016 36.0547 23.4219 35.5547 23.4219ZM59.2031 32.8438C59.2031 33.9062 59.0391 34.9297 58.7109 35.9141C58.3984 36.8828 57.9297 37.75 57.3047 38.5156C56.6953 39.2656 55.9297 39.8672 55.0078 40.3203C54.1016 40.7734 53.0625 41 51.8906 41C51.0469 41 50.2891 40.8672 49.6172 40.6016C48.9609 40.3203 48.3984 39.9531 47.9297 39.5C47.4609 39.0312 47.1016 38.5078 46.8516 37.9297C46.6016 37.3359 46.4766 36.7266 46.4766 36.1016C46.4766 35.4766 46.5938 34.8984 46.8281 34.3672C47.0781 33.8203 47.4062 33.3594 47.8125 32.9844C48.2344 32.5938 48.7109 32.2891 49.2422 32.0703C49.7734 31.8516 50.3359 31.7422 50.9297 31.7422C51.3047 31.7422 51.6953 31.7891 52.1016 31.8828V32.5625C51.6016 32.5625 51.1094 32.6641 50.625 32.8672C50.1562 33.0703 49.7344 33.3516 49.3594 33.7109C49 34.0547 48.7109 34.4766 48.4922 34.9766C48.2734 35.4609 48.1641 35.9844 48.1641 36.5469C48.1641 37.5781 48.5156 38.4062 49.2188 39.0312C49.9375 39.6406 50.9141 39.9453 52.1484 39.9453C52.7734 39.9453 53.3438 39.8281 53.8594 39.5938C54.375 39.3438 54.8125 39.0078 55.1719 38.5859C55.5469 38.1484 55.8281 37.6328 56.0156 37.0391C56.2188 36.4453 56.3203 35.7969 56.3203 35.0938C56.3203 34.4219 56.1875 33.7969 55.9219 33.2188C55.6562 32.6406 55.3047 32.0938 54.8672 31.5781C54.4297 31.0625 53.9297 30.5781 53.3672 30.125C52.8203 29.6719 52.2578 29.2422 51.6797 28.8359C51.1172 28.4141 50.5625 28.0078 50.0156 27.6172C49.4688 27.2266 48.9922 26.8359 48.5859 26.4453L46.2422 31.6484L45.2812 30.9219L47.6719 25.6953C47.0938 25.1484 46.6641 24.6328 46.3828 24.1484C46.1172 23.6484 45.9844 23.0547 45.9844 22.3672C45.9844 21.9922 46.0469 21.6406 46.1719 21.3125C46.3125 20.9688 46.4922 20.6797 46.7109 20.4453C46.9453 20.1953 47.2109 20 47.5078 19.8594C47.8047 19.7188 48.1172 19.6484 48.4453 19.6484C49.0391 19.6484 49.4844 19.8203 49.7812 20.1641C50.0781 20.4922 50.2266 20.9062 50.2266 21.4062C50.2266 21.6406 50.2031 21.8906 50.1562 22.1562C50.1094 22.4062 50.0469 22.6641 49.9688 22.9297C49.9062 23.1797 49.8359 23.4141 49.7578 23.6328C49.6953 23.8516 49.6406 24.0391 49.5938 24.1953C50.0625 24.5547 50.625 24.9062 51.2812 25.25C51.9375 25.5781 52.6172 25.9219 53.3203 26.2812C54.0391 26.6406 54.75 27.0312 55.4531 27.4531C56.1562 27.875 56.7812 28.3438 57.3281 28.8594C57.8906 29.375 58.3438 29.9609 58.6875 30.6172C59.0312 31.2734 59.2031 32.0156 59.2031 32.8438ZM48.4922 20.7031C48.2734 20.7031 48.0938 20.7812 47.9531 20.9375C47.8281 21.0781 47.7656 21.2734 47.7656 21.5234C47.7656 21.8047 47.8359 22.1172 47.9766 22.4609C48.1172 22.8047 48.3672 23.1406 48.7266 23.4688C48.8828 23.1406 49 22.8203 49.0781 22.5078C49.1719 22.1953 49.2188 21.8828 49.2188 21.5703C49.2188 21.3203 49.1484 21.1172 49.0078 20.9609C48.8828 20.7891 48.7109 20.7031 48.4922 20.7031ZM64.1953 26.2109C64.4609 25.6328 64.7812 25.0781 65.1562 24.5469C65.5312 24.0156 65.9609 23.5469 66.4453 23.1406C66.9297 22.7344 67.4688 22.4141 68.0625 22.1797C68.6562 21.9297 69.3047 21.8047 70.0078 21.8047C70.9453 21.8047 71.7734 22.0312 72.4922 22.4844C73.2109 22.9219 73.8125 23.5156 74.2969 24.2656C74.7812 25 75.1484 25.8594 75.3984 26.8438C75.6484 27.8125 75.7734 28.8203 75.7734 29.8672C75.7734 31.4766 75.6094 32.9297 75.2812 34.2266C74.9688 35.5078 74.5391 36.6328 73.9922 37.6016C74.8359 36.9609 75.6875 36.1094 76.5469 35.0469C77.4219 33.9844 78.2812 32.6094 79.125 30.9219L79.3594 30.4297L80.3203 31.1562L80.0859 31.6484C79.3672 33.0859 78.5781 34.3828 77.7188 35.5391C76.8594 36.6953 75.9453 37.6797 74.9766 38.4922C74.0234 39.2891 73.0234 39.9062 71.9766 40.3438C70.9297 40.7812 69.8594 41 68.7656 41C67.7969 41 66.8984 40.7891 66.0703 40.3672C65.2578 39.9453 64.6328 39.4219 64.1953 38.7969V49.8828C64.1953 50.4766 64.1484 50.9688 64.0547 51.3594C63.9766 51.7656 63.8359 52.0859 63.6328 52.3203C63.4453 52.5703 63.1875 52.7422 62.8594 52.8359C62.5312 52.9453 62.1328 53 61.6641 53C61.3047 53 61.0547 52.9375 60.9141 52.8125C60.7734 52.7031 60.7031 52.5234 60.7031 52.2734C60.7031 52.1641 60.7188 51.9688 60.75 51.6875C60.7812 51.4062 60.8125 50.9766 60.8438 50.3984C60.875 49.8359 60.9062 49.0859 60.9375 48.1484C60.9688 47.2266 60.9844 46.0469 60.9844 44.6094V31.6484C60.9844 29.9141 60.9766 28.5312 60.9609 27.5C60.9453 26.4531 60.9297 25.6406 60.9141 25.0625C60.8984 24.4688 60.8828 24.0469 60.8672 23.7969C60.8516 23.5469 60.8438 23.3281 60.8438 23.1406C60.8438 22.9844 60.9219 22.8281 61.0781 22.6719C61.2344 22.5156 61.4375 22.375 61.6875 22.25C61.9375 22.125 62.2031 22.0234 62.4844 21.9453C62.7812 21.8516 63.0625 21.8047 63.3281 21.8047C63.5938 21.8047 63.8047 21.875 63.9609 22.0156C64.1172 22.1562 64.1953 22.4062 64.1953 22.7656V26.2109ZM68.7656 23.8672C68.1094 23.8672 67.5 24.0938 66.9375 24.5469C66.3906 25 65.9141 25.5859 65.5078 26.3047C65.1172 27.0078 64.8047 27.7891 64.5703 28.6484C64.3516 29.5078 64.2422 30.3438 64.2422 31.1562V33.8516C64.2422 34.6953 64.3516 35.4609 64.5703 36.1484C64.8047 36.8359 65.1094 37.4219 65.4844 37.9062C65.8594 38.3906 66.2969 38.7656 66.7969 39.0312C67.3125 39.2812 67.8516 39.4062 68.4141 39.4062C69.7422 39.4062 70.7422 38.7188 71.4141 37.3438C72.1016 35.9688 72.4453 33.8125 72.4453 30.875C72.4453 29.875 72.375 28.9453 72.2344 28.0859C72.0938 27.2266 71.875 26.4844 71.5781 25.8594C71.2812 25.2344 70.8984 24.75 70.4297 24.4062C69.9609 24.0469 69.4062 23.8672 68.7656 23.8672ZM80.5547 30.6875L80.3203 31.1562L80.0859 31.6484L79.125 30.9219L79.3594 30.4297C79.75 29.6328 80.0703 28.8359 80.3203 28.0391C80.5859 27.2266 80.7969 26.4688 80.9531 25.7656C81.125 25.0625 81.2656 24.4453 81.375 23.9141C81.4844 23.3828 81.5938 23 81.7031 22.7656C81.7969 22.5781 81.9297 22.4297 82.1016 22.3203C82.2891 22.1953 82.4766 22.0938 82.6641 22.0156C82.8672 21.9375 83.0547 21.8828 83.2266 21.8516C83.4141 21.8203 83.5469 21.8047 83.625 21.8047C83.9688 21.8047 84.1953 21.875 84.3047 22.0156C84.4297 22.1562 84.4922 22.4062 84.4922 22.7656C84.4922 22.9375 84.4531 23.3672 84.375 24.0547C84.3125 24.7266 84.2344 25.5781 84.1406 26.6094C84.0625 27.625 83.9844 28.7734 83.9062 30.0547C83.8438 31.3203 83.8125 32.6328 83.8125 33.9922C83.8125 34.9766 83.8594 35.7578 83.9531 36.3359C84.0469 36.8984 84.1641 37.3203 84.3047 37.6016C84.4609 37.8828 84.625 38.0625 84.7969 38.1406C84.9844 38.2188 85.1719 38.2578 85.3594 38.2578C85.6094 38.2578 85.8906 38.1484 86.2031 37.9297C86.5156 37.7109 86.8828 37.3281 87.3047 36.7812C87.7266 36.2188 88.2109 35.4688 88.7578 34.5312C89.3047 33.5781 89.9453 32.375 90.6797 30.9219L90.9375 30.4297L91.8984 31.1562L91.6406 31.6484C91.0469 32.8047 90.4531 33.9453 89.8594 35.0703C89.2812 36.1953 88.6875 37.1953 88.0781 38.0703C87.4844 38.9453 86.8828 39.6562 86.2734 40.2031C85.6641 40.7344 85.0547 41 84.4453 41C83.8047 41 83.25 40.875 82.7812 40.625C82.3281 40.3594 81.9453 39.9297 81.6328 39.3359C81.3359 38.7422 81.1094 37.9609 80.9531 36.9922C80.8125 36.0078 80.7422 34.7969 80.7422 33.3594C80.7422 32.9531 80.7422 32.5312 80.7422 32.0938C80.7422 31.6406 80.7578 31.1719 80.7891 30.6875H80.5547ZM85.3594 17C85.3594 17.5469 85.1719 18.0078 84.7969 18.3828C84.4375 18.7422 83.9844 18.9219 83.4375 18.9219C82.9062 18.9219 82.4531 18.7422 82.0781 18.3828C81.7031 18.0078 81.5156 17.5469 81.5156 17C81.5156 16.4688 81.7031 16.0156 82.0781 15.6406C82.4531 15.2656 82.9062 15.0781 83.4375 15.0781C83.9844 15.0781 84.4375 15.2656 84.7969 15.6406C85.1719 16.0156 85.3594 16.4688 85.3594 17ZM90.7031 30.9219L90.9375 30.4297C91.1719 29.9609 91.3828 29.4766 91.5703 28.9766C91.7734 28.4766 91.9453 28.0078 92.0859 27.5703C92.2266 27.1172 92.3359 26.7188 92.4141 26.375C92.4922 26.0156 92.5469 25.7422 92.5781 25.5547C92.1719 25.5078 91.7812 25.4062 91.4062 25.25C91.0312 25.0938 90.7031 24.8828 90.4219 24.6172C90.1406 24.3516 89.9219 24.0391 89.7656 23.6797C89.5938 23.3203 89.5078 22.9141 89.5078 22.4609C89.5078 22.1016 89.5703 21.7812 89.6953 21.5C89.8203 21.2188 89.9922 20.9844 90.2109 20.7969C90.4141 20.6094 90.6484 20.4688 90.9141 20.375C91.1641 20.2656 91.4297 20.2109 91.7109 20.2109C92.0859 20.2109 92.4141 20.2891 92.6953 20.4453C92.9766 20.6016 93.2109 20.8125 93.3984 21.0781C93.5859 21.3281 93.7266 21.625 93.8203 21.9688C93.9141 22.2969 93.9609 22.6406 93.9609 23C94.3984 23 94.8672 22.9375 95.3672 22.8125C95.8828 22.6875 96.3984 22.5547 96.9141 22.4141C97.4297 22.2578 97.9375 22.1172 98.4375 21.9922C98.9375 21.8672 99.3984 21.8047 99.8203 21.8047C100.18 21.8047 100.469 21.8828 100.688 22.0391C100.906 22.1797 101.016 22.4219 101.016 22.7656C101.016 23.0156 100.938 23.4297 100.781 24.0078C100.641 24.5859 100.461 25.2578 100.242 26.0234C100.023 26.7891 99.7812 27.625 99.5156 28.5312C99.2656 29.4219 99.0312 30.3281 98.8125 31.25C98.5938 32.1562 98.4062 33.0391 98.25 33.8984C98.1094 34.7578 98.0391 35.5234 98.0391 36.1953C98.0391 37.0391 98.1328 37.6094 98.3203 37.9062C98.5078 38.2031 98.8438 38.3516 99.3281 38.3516C99.5312 38.3516 99.7812 38.2656 100.078 38.0938C100.391 37.9062 100.766 37.5547 101.203 37.0391C101.641 36.5078 102.156 35.7578 102.75 34.7891C103.359 33.8047 104.062 32.5156 104.859 30.9219L105.094 30.4297L106.055 31.1562L105.82 31.6484C104.883 33.5234 104.047 35.0625 103.312 36.2656C102.578 37.4688 101.898 38.4219 101.273 39.125C100.664 39.8281 100.086 40.3203 99.5391 40.6016C98.9922 40.8672 98.4453 41 97.8984 41C96.9766 41 96.2266 40.6484 95.6484 39.9453C95.0703 39.2422 94.7812 38.1562 94.7812 36.6875C94.7812 35.8906 94.8906 35.0625 95.1094 34.2031C95.3281 33.3438 95.6016 32.4922 95.9297 31.6484C96.2578 30.7891 96.625 29.9453 97.0312 29.1172C97.4375 28.2891 97.8203 27.5078 98.1797 26.7734C98.5547 26.0234 98.8906 25.3281 99.1875 24.6875C99.4844 24.0469 99.6953 23.4844 99.8203 23L99.6797 22.8594C99.4297 22.8594 99.0938 22.9922 98.6719 23.2578C98.25 23.5234 97.7734 23.8281 97.2422 24.1719C96.7266 24.5 96.1719 24.8125 95.5781 25.1094C94.9844 25.4062 94.3828 25.5859 93.7734 25.6484C93.7422 25.8672 93.6719 26.1875 93.5625 26.6094C93.4688 27.0312 93.3359 27.5 93.1641 28.0156C92.9922 28.5312 92.7969 29.0625 92.5781 29.6094C92.3594 30.1562 92.1328 30.6719 91.8984 31.1562L91.6641 31.6484L90.7031 30.9219ZM91.8516 21.5234C91.7109 21.5234 91.5938 21.5703 91.5 21.6641C91.4062 21.7578 91.3594 21.8672 91.3594 21.9922C91.3594 22.1797 91.4062 22.3438 91.5 22.4844C91.5938 22.6094 91.7109 22.7188 91.8516 22.8125C91.9922 22.8906 92.1328 22.9531 92.2734 23C92.4297 23.0312 92.5625 23.0469 92.6719 23.0469C92.6719 22.6094 92.6016 22.25 92.4609 21.9688C92.3203 21.6719 92.1172 21.5234 91.8516 21.5234ZM112.008 38.3516C112.555 38.3516 113.109 38.2109 113.672 37.9297C114.25 37.6484 114.828 37.2109 115.406 36.6172C116 36.0234 116.609 35.2578 117.234 34.3203C117.859 33.3672 118.5 32.2344 119.156 30.9219L119.391 30.4297L120.352 31.1562L120.117 31.6484C119.273 33.3203 118.43 34.75 117.586 35.9375C116.758 37.125 115.938 38.0938 115.125 38.8438C114.328 39.5938 113.539 40.1406 112.758 40.4844C111.977 40.8281 111.227 41 110.508 41C109.492 41 108.586 40.7891 107.789 40.3672C106.992 39.9453 106.32 39.375 105.773 38.6562C105.227 37.9219 104.812 37.0781 104.531 36.125C104.234 35.1562 104.086 34.1406 104.086 33.0781C104.086 31.3906 104.32 29.8594 104.789 28.4844C105.242 27.0938 105.852 25.9062 106.617 24.9219C107.398 23.9375 108.281 23.1719 109.266 22.625C110.25 22.0781 111.273 21.8047 112.336 21.8047C113.414 21.8047 114.234 22.0781 114.797 22.625C115.375 23.1719 115.664 23.8594 115.664 24.6875C115.664 25.4844 115.438 26.2344 114.984 26.9375C114.531 27.625 113.914 28.3047 113.133 28.9766C112.367 29.6328 111.477 30.2891 110.461 30.9453C109.445 31.5859 108.375 32.25 107.25 32.9375C107.359 33.75 107.547 34.4922 107.812 35.1641C108.078 35.8203 108.414 36.3906 108.82 36.875C109.227 37.3438 109.695 37.7109 110.227 37.9766C110.758 38.2266 111.352 38.3516 112.008 38.3516ZM112.734 25.3906C112.734 24.7656 112.562 24.2734 112.219 23.9141C111.891 23.5547 111.484 23.375 111 23.375C110.594 23.375 110.164 23.5234 109.711 23.8203C109.258 24.1016 108.844 24.5625 108.469 25.2031C108.094 25.8281 107.781 26.6328 107.531 27.6172C107.281 28.6016 107.156 29.7969 107.156 31.2031V31.7422C107.688 31.4609 108.273 31.0938 108.914 30.6406C109.57 30.1719 110.18 29.6562 110.742 29.0938C111.305 28.5312 111.773 27.9375 112.148 27.3125C112.539 26.6719 112.734 26.0312 112.734 25.3906Z" fill="#3D3938"/>
</svg>
